<mxfile host="app.diagrams.net" modified="2023-10-27T10:43:27.857Z" agent="Mozilla/5.0 (Windows NT 10.0; Win64; x64; rv:109.0) Gecko/20100101 Firefox/112.0" etag="5759gXEKr1Pr10Y75RhN" version="22.0.8" type="device">
  <diagram name="Page-1" id="oiIH-thv_ji0TnqEqU7W">
    <mxGraphModel dx="2333" dy="1196" grid="1" gridSize="10" guides="1" tooltips="1" connect="1" arrows="1" fold="1" page="1" pageScale="1" pageWidth="850" pageHeight="1100" math="0" shadow="0">
      <root>
        <mxCell id="0" />
        <mxCell id="1" parent="0" />
        <mxCell id="f9oq8-t0g4hrvbMn3Udf-5" value="&lt;b&gt;&lt;font style=&quot;font-size: 21px;&quot;&gt;Start&lt;/font&gt;&lt;/b&gt;" style="rounded=1;whiteSpace=wrap;html=1;arcSize=50;" parent="1" vertex="1">
          <mxGeometry x="48.25" y="40" width="110" height="40" as="geometry" />
        </mxCell>
        <mxCell id="f9oq8-t0g4hrvbMn3Udf-13" style="edgeStyle=orthogonalEdgeStyle;rounded=0;orthogonalLoop=1;jettySize=auto;html=1;exitX=0.5;exitY=1;exitDx=0;exitDy=0;entryX=0.5;entryY=0;entryDx=0;entryDy=0;" parent="1" source="f9oq8-t0g4hrvbMn3Udf-6" target="f9oq8-t0g4hrvbMn3Udf-8" edge="1">
          <mxGeometry relative="1" as="geometry" />
        </mxCell>
        <mxCell id="f9oq8-t0g4hrvbMn3Udf-6" value="Initial Values (empty tanks)" style="rounded=0;whiteSpace=wrap;html=1;" parent="1" vertex="1">
          <mxGeometry x="53.25" y="100" width="100" height="40" as="geometry" />
        </mxCell>
        <mxCell id="f9oq8-t0g4hrvbMn3Udf-7" value="" style="endArrow=none;html=1;rounded=0;entryX=0.5;entryY=1;entryDx=0;entryDy=0;exitX=0.5;exitY=0;exitDx=0;exitDy=0;" parent="1" source="f9oq8-t0g4hrvbMn3Udf-6" target="f9oq8-t0g4hrvbMn3Udf-5" edge="1">
          <mxGeometry width="50" height="50" relative="1" as="geometry">
            <mxPoint x="3.8700000000000045" y="130" as="sourcePoint" />
            <mxPoint x="53.870000000000005" y="80" as="targetPoint" />
          </mxGeometry>
        </mxCell>
        <mxCell id="f9oq8-t0g4hrvbMn3Udf-12" style="edgeStyle=orthogonalEdgeStyle;rounded=0;orthogonalLoop=1;jettySize=auto;html=1;entryX=0.5;entryY=0;entryDx=0;entryDy=0;" parent="1" source="f9oq8-t0g4hrvbMn3Udf-8" target="f9oq8-t0g4hrvbMn3Udf-11" edge="1">
          <mxGeometry relative="1" as="geometry" />
        </mxCell>
        <mxCell id="f9oq8-t0g4hrvbMn3Udf-8" value="&lt;b&gt;Step 1:&lt;/b&gt;&lt;br&gt;Open LV1 &amp;amp; FV1&lt;br&gt;Close LV2 &amp;amp; LV3&lt;br&gt;Motor speed 30% 10 [sec]" style="rounded=0;whiteSpace=wrap;html=1;" parent="1" vertex="1">
          <mxGeometry x="20.75" y="170" width="165" height="70" as="geometry" />
        </mxCell>
        <mxCell id="f9oq8-t0g4hrvbMn3Udf-19" style="edgeStyle=orthogonalEdgeStyle;rounded=0;orthogonalLoop=1;jettySize=auto;html=1;exitX=1;exitY=0.5;exitDx=0;exitDy=0;" parent="1" source="f9oq8-t0g4hrvbMn3Udf-11" edge="1">
          <mxGeometry relative="1" as="geometry">
            <mxPoint x="118.25" y="270" as="targetPoint" />
            <Array as="points">
              <mxPoint x="228" y="350" />
              <mxPoint x="228" y="270" />
            </Array>
            <mxPoint x="208.25" y="339" as="sourcePoint" />
          </mxGeometry>
        </mxCell>
        <mxCell id="f9oq8-t0g4hrvbMn3Udf-20" value="NO" style="edgeLabel;html=1;align=center;verticalAlign=middle;resizable=0;points=[];" parent="f9oq8-t0g4hrvbMn3Udf-19" vertex="1" connectable="0">
          <mxGeometry x="-0.8804" y="2" relative="1" as="geometry">
            <mxPoint x="-11" y="-23" as="offset" />
          </mxGeometry>
        </mxCell>
        <mxCell id="c8ERr_K_Zv2-db0nXAy5-5" style="edgeStyle=orthogonalEdgeStyle;rounded=0;orthogonalLoop=1;jettySize=auto;html=1;exitX=0.5;exitY=1;exitDx=0;exitDy=0;entryX=0.5;entryY=0;entryDx=0;entryDy=0;" edge="1" parent="1" source="f9oq8-t0g4hrvbMn3Udf-11" target="f9oq8-t0g4hrvbMn3Udf-21">
          <mxGeometry relative="1" as="geometry" />
        </mxCell>
        <mxCell id="f9oq8-t0g4hrvbMn3Udf-11" value="&lt;b&gt;Step 2:&lt;/b&gt;&lt;br&gt;LT2 = max - 5.5 [cm]" style="rhombus;whiteSpace=wrap;html=1;" parent="1" vertex="1">
          <mxGeometry x="17" y="310" width="172.5" height="80" as="geometry" />
        </mxCell>
        <mxCell id="f9oq8-t0g4hrvbMn3Udf-28" style="edgeStyle=orthogonalEdgeStyle;rounded=0;orthogonalLoop=1;jettySize=auto;html=1;exitX=0.5;exitY=1;exitDx=0;exitDy=0;entryX=0.5;entryY=0;entryDx=0;entryDy=0;" parent="1" source="f9oq8-t0g4hrvbMn3Udf-21" target="f9oq8-t0g4hrvbMn3Udf-26" edge="1">
          <mxGeometry relative="1" as="geometry" />
        </mxCell>
        <mxCell id="c8ERr_K_Zv2-db0nXAy5-4" value="" style="edgeStyle=orthogonalEdgeStyle;rounded=0;orthogonalLoop=1;jettySize=auto;html=1;" edge="1" parent="1" source="f9oq8-t0g4hrvbMn3Udf-21" target="f9oq8-t0g4hrvbMn3Udf-26">
          <mxGeometry relative="1" as="geometry" />
        </mxCell>
        <mxCell id="f9oq8-t0g4hrvbMn3Udf-21" value="&lt;b&gt;Step 3:&lt;br&gt;&lt;/b&gt;LV2 = PID-control&lt;br&gt;Log data (LV2, etc.?)" style="rounded=0;whiteSpace=wrap;html=1;" parent="1" vertex="1">
          <mxGeometry x="37.629999999999995" y="445" width="131.25" height="50" as="geometry" />
        </mxCell>
        <mxCell id="c8ERr_K_Zv2-db0nXAy5-26" style="edgeStyle=orthogonalEdgeStyle;rounded=0;orthogonalLoop=1;jettySize=auto;html=1;exitX=0.5;exitY=1;exitDx=0;exitDy=0;" edge="1" parent="1" source="f9oq8-t0g4hrvbMn3Udf-23">
          <mxGeometry relative="1" as="geometry">
            <mxPoint x="406.66666666666674" y="190" as="targetPoint" />
          </mxGeometry>
        </mxCell>
        <mxCell id="f9oq8-t0g4hrvbMn3Udf-23" value="&lt;b&gt;Overflow&lt;/b&gt;&lt;br&gt;LT2 &amp;gt;&amp;nbsp;" style="rhombus;whiteSpace=wrap;html=1;" parent="1" vertex="1">
          <mxGeometry x="320" y="60" width="172.5" height="80" as="geometry" />
        </mxCell>
        <mxCell id="c8ERr_K_Zv2-db0nXAy5-9" value="" style="edgeStyle=orthogonalEdgeStyle;rounded=0;orthogonalLoop=1;jettySize=auto;html=1;" edge="1" parent="1" source="c8ERr_K_Zv2-db0nXAy5-13">
          <mxGeometry relative="1" as="geometry">
            <mxPoint x="102.62499999999989" y="670" as="targetPoint" />
          </mxGeometry>
        </mxCell>
        <mxCell id="c8ERr_K_Zv2-db0nXAy5-23" style="edgeStyle=orthogonalEdgeStyle;rounded=0;orthogonalLoop=1;jettySize=auto;html=1;exitX=1;exitY=0.5;exitDx=0;exitDy=0;entryX=1;entryY=0.5;entryDx=0;entryDy=0;" edge="1" parent="1" source="f9oq8-t0g4hrvbMn3Udf-26" target="f9oq8-t0g4hrvbMn3Udf-21">
          <mxGeometry relative="1" as="geometry" />
        </mxCell>
        <mxCell id="f9oq8-t0g4hrvbMn3Udf-26" value="&lt;b&gt;PDT2 &amp;gt; 70%&lt;/b&gt;" style="rhombus;whiteSpace=wrap;html=1;" parent="1" vertex="1">
          <mxGeometry x="42.629999999999995" y="530" width="119.99" height="60" as="geometry" />
        </mxCell>
        <mxCell id="c8ERr_K_Zv2-db0nXAy5-15" value="" style="edgeStyle=orthogonalEdgeStyle;rounded=0;orthogonalLoop=1;jettySize=auto;html=1;entryX=0.5;entryY=0;entryDx=0;entryDy=0;" edge="1" parent="1" source="c8ERr_K_Zv2-db0nXAy5-13" target="c8ERr_K_Zv2-db0nXAy5-16">
          <mxGeometry relative="1" as="geometry">
            <mxPoint x="102.62" y="785.006875" as="targetPoint" />
          </mxGeometry>
        </mxCell>
        <mxCell id="c8ERr_K_Zv2-db0nXAy5-19" value="" style="edgeStyle=orthogonalEdgeStyle;rounded=0;orthogonalLoop=1;jettySize=auto;html=1;" edge="1" parent="1" source="c8ERr_K_Zv2-db0nXAy5-16" target="c8ERr_K_Zv2-db0nXAy5-18">
          <mxGeometry relative="1" as="geometry" />
        </mxCell>
        <mxCell id="c8ERr_K_Zv2-db0nXAy5-16" value="&lt;div&gt;&lt;b&gt;Results measured&lt;/b&gt;&lt;/div&gt;" style="rhombus;whiteSpace=wrap;html=1;" vertex="1" parent="1">
          <mxGeometry x="42.629999999999995" y="720" width="119.99" height="60" as="geometry" />
        </mxCell>
        <mxCell id="c8ERr_K_Zv2-db0nXAy5-18" value="&lt;div&gt;&lt;b&gt;Step 5:&lt;/b&gt;&lt;/div&gt;&lt;div&gt;Open LV1, LV2, LV3&lt;br&gt;&lt;/div&gt;" style="whiteSpace=wrap;html=1;" vertex="1" parent="1">
          <mxGeometry x="42.625" y="830" width="120" height="60" as="geometry" />
        </mxCell>
        <mxCell id="c8ERr_K_Zv2-db0nXAy5-21" value="" style="edgeStyle=orthogonalEdgeStyle;rounded=0;orthogonalLoop=1;jettySize=auto;html=1;" edge="1" parent="1" source="f9oq8-t0g4hrvbMn3Udf-26" target="c8ERr_K_Zv2-db0nXAy5-13">
          <mxGeometry relative="1" as="geometry">
            <mxPoint x="103" y="590" as="sourcePoint" />
            <mxPoint x="102.62499999999989" y="670" as="targetPoint" />
          </mxGeometry>
        </mxCell>
        <mxCell id="c8ERr_K_Zv2-db0nXAy5-13" value="&lt;div&gt;&lt;b&gt;Step 4:&lt;/b&gt;&lt;/div&gt;&lt;div&gt;Measure results&lt;b&gt;&lt;br&gt;&lt;/b&gt;&lt;/div&gt;" style="rounded=0;whiteSpace=wrap;html=1;" vertex="1" parent="1">
          <mxGeometry x="37" y="620" width="131.25" height="50" as="geometry" />
        </mxCell>
        <mxCell id="c8ERr_K_Zv2-db0nXAy5-24" value="Yes" style="text;html=1;align=center;verticalAlign=middle;resizable=0;points=[];autosize=1;strokeColor=none;fillColor=none;" vertex="1" parent="1">
          <mxGeometry x="100" y="590" width="40" height="30" as="geometry" />
        </mxCell>
        <mxCell id="c8ERr_K_Zv2-db0nXAy5-25" value="&lt;div&gt;No&lt;/div&gt;" style="text;html=1;align=center;verticalAlign=middle;resizable=0;points=[];autosize=1;strokeColor=none;fillColor=none;" vertex="1" parent="1">
          <mxGeometry x="153.25" y="535" width="40" height="30" as="geometry" />
        </mxCell>
        <mxCell id="c8ERr_K_Zv2-db0nXAy5-28" style="edgeStyle=orthogonalEdgeStyle;rounded=0;orthogonalLoop=1;jettySize=auto;html=1;exitX=0.5;exitY=1;exitDx=0;exitDy=0;" edge="1" parent="1" source="c8ERr_K_Zv2-db0nXAy5-27">
          <mxGeometry relative="1" as="geometry">
            <mxPoint x="406.66666666666674" y="300" as="targetPoint" />
          </mxGeometry>
        </mxCell>
        <mxCell id="c8ERr_K_Zv2-db0nXAy5-27" value="&lt;div&gt;Fully open LV2&lt;/div&gt;&lt;div&gt;Close LV1&lt;/div&gt;&lt;div&gt;Stop motor&lt;/div&gt;" style="rounded=0;whiteSpace=wrap;html=1;" vertex="1" parent="1">
          <mxGeometry x="346.25" y="190" width="120" height="60" as="geometry" />
        </mxCell>
        <mxCell id="c8ERr_K_Zv2-db0nXAy5-29" value="&lt;b&gt;LT2 = max -5.5[cm]&lt;br&gt;&lt;/b&gt;" style="rhombus;whiteSpace=wrap;html=1;" vertex="1" parent="1">
          <mxGeometry x="320" y="300" width="172.5" height="80" as="geometry" />
        </mxCell>
        <mxCell id="c8ERr_K_Zv2-db0nXAy5-31" value="" style="swimlane;startSize=0;" vertex="1" parent="1">
          <mxGeometry x="280" y="40" width="240" height="370" as="geometry" />
        </mxCell>
        <mxCell id="c8ERr_K_Zv2-db0nXAy5-40" value="" style="swimlane;startSize=0;" vertex="1" parent="1">
          <mxGeometry x="550" y="40" width="260" height="370" as="geometry" />
        </mxCell>
        <mxCell id="c8ERr_K_Zv2-db0nXAy5-44" value="" style="edgeStyle=orthogonalEdgeStyle;rounded=0;orthogonalLoop=1;jettySize=auto;html=1;" edge="1" parent="1" source="c8ERr_K_Zv2-db0nXAy5-42" target="c8ERr_K_Zv2-db0nXAy5-43">
          <mxGeometry relative="1" as="geometry" />
        </mxCell>
        <mxCell id="c8ERr_K_Zv2-db0nXAy5-42" value="&lt;div&gt;&lt;b&gt;PT1 or PT2 &amp;gt; 4 bar&lt;/b&gt;&lt;/div&gt;&lt;div&gt;or&lt;/div&gt;&lt;div&gt;&lt;b&gt;TT &amp;gt; 80℃&lt;/b&gt;&lt;/div&gt;" style="rhombus;whiteSpace=wrap;html=1;" vertex="1" parent="1">
          <mxGeometry x="312.5" y="485" width="190" height="140" as="geometry" />
        </mxCell>
        <mxCell id="c8ERr_K_Zv2-db0nXAy5-43" value="Alarm" style="whiteSpace=wrap;html=1;" vertex="1" parent="1">
          <mxGeometry x="322.5" y="650" width="170" height="90" as="geometry" />
        </mxCell>
        <mxCell id="c8ERr_K_Zv2-db0nXAy5-37" value="&lt;b&gt;Emergency pressed&lt;/b&gt;" style="rhombus;whiteSpace=wrap;html=1;" vertex="1" parent="1">
          <mxGeometry x="530" y="490" width="230" height="130" as="geometry" />
        </mxCell>
        <mxCell id="c8ERr_K_Zv2-db0nXAy5-38" value="&lt;div&gt;Stop motor&lt;/div&gt;&lt;div&gt;Open FV1&lt;br&gt;Open LV1&lt;/div&gt;&lt;div&gt;Open LV2&lt;/div&gt;&lt;div&gt;Open LV3&lt;/div&gt;&lt;div&gt;&lt;br&gt;&lt;/div&gt;" style="whiteSpace=wrap;html=1;" vertex="1" parent="1">
          <mxGeometry x="410" y="840" width="170" height="85" as="geometry" />
        </mxCell>
        <mxCell id="c8ERr_K_Zv2-db0nXAy5-39" value="" style="edgeStyle=orthogonalEdgeStyle;rounded=0;orthogonalLoop=1;jettySize=auto;html=1;" edge="1" parent="1" source="c8ERr_K_Zv2-db0nXAy5-37" target="c8ERr_K_Zv2-db0nXAy5-38">
          <mxGeometry relative="1" as="geometry">
            <Array as="points">
              <mxPoint x="645" y="780" />
              <mxPoint x="495" y="780" />
            </Array>
          </mxGeometry>
        </mxCell>
        <mxCell id="c8ERr_K_Zv2-db0nXAy5-47" value="" style="endArrow=classic;html=1;rounded=0;exitX=0.454;exitY=0.997;exitDx=0;exitDy=0;exitPerimeter=0;" edge="1" parent="1" source="c8ERr_K_Zv2-db0nXAy5-43">
          <mxGeometry width="50" height="50" relative="1" as="geometry">
            <mxPoint x="500" y="800" as="sourcePoint" />
            <mxPoint x="500" y="780" as="targetPoint" />
            <Array as="points">
              <mxPoint x="400" y="780" />
            </Array>
          </mxGeometry>
        </mxCell>
      </root>
    </mxGraphModel>
  </diagram>
</mxfile>
